<?xml version="1.0" encoding="UTF-8" standalone="no"?>
<!-- Created with Inkscape (http://www.inkscape.org/) -->

<svg
   xmlns:dc="http://purl.org/dc/elements/1.1/"
   xmlns:cc="http://creativecommons.org/ns#"
   xmlns:rdf="http://www.w3.org/1999/02/22-rdf-syntax-ns#"
   xmlns:svg="http://www.w3.org/2000/svg"
   xmlns="http://www.w3.org/2000/svg"
   xmlns:sodipodi="http://sodipodi.sourceforge.net/DTD/sodipodi-0.dtd"
   xmlns:inkscape="http://www.inkscape.org/namespaces/inkscape"
   width="50.674347mm"
   height="118.63216mm"
   viewBox="0 0 51.189692 119.83862"
   version="1.1"
   id="svg856"
   inkscape:version="0.92.4 (5da689c313, 2019-01-14)"
   sodipodi:docname="rotate_cclockwise.svg">
  <defs
     id="defs850" />
  <sodipodi:namedview
     id="base"
     pagecolor="#ffffff"
     bordercolor="#666666"
     borderopacity="1.0"
     inkscape:pageopacity="0.0"
     inkscape:pageshadow="2"
     inkscape:zoom="0.82173542"
     inkscape:cx="-156.13308"
     inkscape:cy="307.13928"
     inkscape:document-units="mm"
     inkscape:current-layer="svg856"
     showgrid="false"
     inkscape:window-width="1920"
     inkscape:window-height="1025"
     inkscape:window-x="0"
     inkscape:window-y="27"
     inkscape:window-maximized="1" />
  <metadata
     id="metadata853">
    <rdf:RDF>
      <cc:Work
         rdf:about="">
        <dc:format>image/svg+xml</dc:format>
        <dc:type
           rdf:resource="http://purl.org/dc/dcmitype/StillImage" />
        <dc:title />
      </cc:Work>
    </rdf:RDF>
  </metadata>
  <path
     style="stroke-width:0.07000434"
     id="path2"
     d="m 5.701116,103.38814 c 5.775393,-2.01596 11.211548,-5.303185 15.858938,-9.942713 16.597453,-16.475232 16.696512,-43.277336 0.22128,-59.874803 0,0 -4.534081,-4.541175 -4.534081,-4.541175 0,0 -0.04918,13.308462 -0.04918,13.308462 -0.01731,4.6831 -3.814806,8.452629 -8.497909,8.435325 -4.683086,-0.01731 -8.45262902,-3.814809 -8.43531702,-8.4979 0,0 0.124665,-33.7341532 0.124665,-33.7341532 0,0 0,0 0,0 0,0 4.73e-4,-0.1058103 4.73e-4,-0.1058103 C 0.40729498,3.7522908 4.204796,-0.01724576 8.887877,5.9344923e-5 c 0,0 33.866447,0.125164495077 33.866447,0.125164495077 4.683082,0.017305 8.452627,3.81480626 8.435313,8.49789246 -0.01731,4.6831037 -3.814802,8.4526357 -8.497896,8.4353257 0,0 -13.546576,-0.05007 -13.546576,-0.05007 0,0 4.639529,4.64739 4.639529,4.64739 23.065318,23.236452 22.926666,60.75411 -0.309777,83.819438 -6.479653,6.43193 -14.090353,11.0605 -22.223576,13.88797 -4.42427,1.54469 -9.231049,-0.80142 -10.77584902,-5.19925 C -1.069309,109.7661 1.276913,104.93287 5.674733,103.38807 c 0,0 0.02642,5e-5 0.02642,5e-5"
     inkscape:connector-curvature="0" />
</svg>
