<?xml version="1.0" encoding="UTF-8" standalone="no"?><!DOCTYPE svg PUBLIC "-//W3C//DTD SVG 1.1//EN" "http://www.w3.org/Graphics/SVG/1.1/DTD/svg11.dtd"><svg width="100%" height="100%" viewBox="0 0 21 10" version="1.1" xmlns="http://www.w3.org/2000/svg" xmlns:xlink="http://www.w3.org/1999/xlink" xml:space="preserve" xmlns:serif="http://www.serif.com/" style="fill-rule:evenodd;clip-rule:evenodd;stroke-linejoin:round;stroke-miterlimit:2;"><path d="M1.018,0l0,7.723l5.911,0l0,-3.202l-2.369,0l0,-1.12l3.707,0l0,5.522l-8.267,0l-0,1.031l9.299,0l-0,-7.584l-5.772,-0l-0,3.182l2.37,0l0,1.139l-3.848,0l-0,-5.66l15.977,0l-0,5.66l-3.847,0l-0,-1.139l2.369,0l-0,-3.182l-5.771,-0l-0,7.584l9.299,0l-0,-1.031l-8.268,0l-0,-5.522l3.709,0l-0,1.12l-2.371,0l-0,3.202l5.912,0l-0,-7.723l-18.04,0Z" style="fill:#fff;fill-rule:nonzero;"/></svg>